<?xml version="1.0" encoding="UTF-8"?>
<svg id="Layer_1" data-name="Layer 1" xmlns="http://www.w3.org/2000/svg" xmlns:xlink="http://www.w3.org/1999/xlink" viewBox="0 0 1074.73 1074.73">
  <defs>
    <style>
      .cls-1 {
        fill: none;
      }

      .cls-2 {
        clip-path: url(#clippath);
      }

      .cls-3 {
        fill: #f7f5f5;
      }

      .cls-4 {
        fill: #70ded9;
      }
    </style>
    <clipPath id="clippath">
      <circle class="cls-1" cx="536.98" cy="532.72" r="508.49"/>
    </clipPath>
  </defs>
  <circle class="cls-4" cx="537.36" cy="537.36" r="537.36"/>
  <g class="cls-2">
    <path class="cls-3" d="M888.71,787.05c0,84.5-26.17,148.37-78.47,191.57-52.32,43.23-121.02,64.83-206.13,64.83H261V448.87c0-170.47,142.9-308.67,319.18-308.67h0c154.26,0,231.4,78.66,231.4,236.01,0,43.71-7.11,80.63-21.27,110.73-14.2,30.11-37.24,55.36-69.16,75.75,62.94,15.55,106.6,42.75,130.99,81.59,24.38,38.86,36.58,86.45,36.58,142.77Zm-275.29-380.24c0-58.28-32.81-87.42-98.41-87.42h-39.9v176.28h39.9c65.6,0,98.41-29.61,98.41-88.86Zm61.18,364.21c0-39.81-11.97-65.79-35.91-77.94-23.93-12.13-63.83-18.21-119.69-18.21h-43.89v189.39h47.88c58.51,0,98.41-7.76,119.69-23.31,21.28-15.52,31.92-38.83,31.92-69.93Z"/>
    <circle class="cls-1" cx="545.91" cy="523.8" r="508.49"/>
  </g>
</svg>