<?xml version="1.0" encoding="UTF-8"?>
<svg id="Layer_1" data-name="Layer 1" xmlns="http://www.w3.org/2000/svg" xmlns:xlink="http://www.w3.org/1999/xlink" viewBox="0 0 2193.28 591.46">
  <defs>
    <style>
      .cls-1 {
        fill: none;
      }

      .cls-2 {
        stroke: #70ded9;
        stroke-miterlimit: 10;
        stroke-width: 5px;
      }

      .cls-2, .cls-3 {
        fill: #70ded9;
      }

      .cls-4 {
        clip-path: url(#clippath);
      }

      .cls-5 {
        fill: #f7f5f5;
      }
    </style>
    <clipPath id="clippath">
      <circle class="cls-1" cx="295.52" cy="293.17" r="279.84"/>
    </clipPath>
  </defs>
  <path class="cls-2" d="M926.24,214.39c0,15.29-3.65,29.43-10.93,42.4-7.29,12.98-19.47,23.02-36.53,30.13,20.27,6.76,35.38,17.33,45.33,31.73,9.95,14.4,14.93,30.67,14.93,48.8,0,32.36-11.65,56.36-34.93,72-23.29,15.65-56.45,23.47-99.47,23.47-14.93,0-29.42-.62-43.47-1.87-14.05-1.25-27.47-3.65-40.27-7.2-14.93-4.27-22.4-12.44-22.4-24.53V156.26c0-10.31,5.87-17.07,17.6-20.27,12.08-3.55,24.88-5.95,38.4-7.2,13.51-1.24,28.27-1.87,44.27-1.87,40.17,0,71.47,7.12,93.87,21.33,22.4,14.23,33.6,36.27,33.6,66.13Zm-185.07,56.53h72.53c22.4,0,39.38-4.98,50.93-14.93,11.55-9.95,17.33-23.47,17.33-40.53,0-35.2-27.73-52.8-83.2-52.8-12.45,0-23.2,.45-32.27,1.33-9.07,.89-17.52,2.05-25.33,3.47v103.47Zm0,35.2v115.2c8.53,1.78,18.4,3.2,29.6,4.27,11.2,1.07,22.48,1.6,33.87,1.6,29.51,0,51.91-4.88,67.2-14.67,15.28-9.78,22.93-25.15,22.93-46.13,0-18.48-6.85-33.15-20.53-44-13.69-10.84-33.87-16.27-60.53-16.27h-72.53Z"/>
  <path class="cls-2" d="M1097.98,203.72c30.93,0,55.47,6.93,73.6,20.8,18.13,13.87,27.2,35.73,27.2,65.6v126.4c0,7.83-1.52,13.78-4.53,17.87-3.03,4.09-7.56,7.92-13.6,11.47-8.53,4.98-19.83,9.33-33.87,13.07-14.05,3.73-30.13,5.6-48.27,5.6-33.42,0-59.29-6.58-77.6-19.73-18.32-13.15-27.47-32.18-27.47-57.07,0-23.47,7.64-41.15,22.93-53.07,15.28-11.91,36.8-19.28,64.53-22.13l75.73-7.47v-14.93c0-17.77-5.33-30.75-16-38.93-10.67-8.18-25.07-12.27-43.2-12.27-14.93,0-28.98,2.13-42.13,6.4-13.16,4.27-24.89,9.07-35.2,14.4-2.85-2.48-5.43-5.33-7.73-8.53-2.32-3.2-3.47-6.75-3.47-10.67,0-4.98,1.24-9.07,3.73-12.27,2.48-3.2,6.4-6.22,11.73-9.07,9.6-4.98,20.62-8.8,33.07-11.47,12.44-2.67,25.95-4,40.53-4Zm.53,225.6c14.93,0,27.28-1.51,37.07-4.53,9.77-3.02,16.8-5.95,21.07-8.8v-77.33l-66.13,6.93c-18.49,1.78-32.18,5.96-41.07,12.53-8.89,6.58-13.33,16.27-13.33,29.07,0,13.52,5.15,23.92,15.47,31.2,10.31,7.29,25.95,10.93,46.93,10.93Z"/>
  <path class="cls-2" d="M1430.51,252.79c-11.2-9.24-26.23-13.87-45.07-13.87-14.23,0-26.85,1.78-37.87,5.33-11.03,3.56-20.45,7.65-28.27,12.27v199.47c-1.78,.72-4.45,1.51-8,2.4-3.56,.88-7.47,1.33-11.73,1.33-15.29,0-22.93-6.4-22.93-19.2v-181.87c0-7.47,1.51-13.6,4.53-18.4,3.02-4.8,8.27-9.51,15.73-14.13,9.24-5.68,21.51-10.84,36.8-15.47,15.28-4.62,32.53-6.93,51.73-6.93,32.35,0,57.87,7.29,76.53,21.87,18.67,14.58,28,37.52,28,68.8v161.6c-1.78,.72-4.53,1.51-8.27,2.4-3.73,.88-7.56,1.33-11.47,1.33-15.29,0-22.93-6.4-22.93-19.2v-144c0-19.91-5.6-34.48-16.8-43.73Z"/>
  <path class="cls-2" d="M1654.24,463.99c-24.89,0-45.07-5.52-60.53-16.53-15.47-11.02-23.2-29.33-23.2-54.93V139.19c1.78-.71,4.53-1.51,8.27-2.4,3.73-.88,7.73-1.33,12-1.33,14.93,0,22.4,6.4,22.4,19.2v61.33h87.47c1.07,1.78,2.13,4.18,3.2,7.2,1.07,3.02,1.6,6.32,1.6,9.87,0,12.09-5.33,18.13-16,18.13h-76.27v138.67c0,14.22,4,24.27,12,30.13,8,5.87,19.28,8.8,33.87,8.8,6.04,0,12.8-1.07,20.27-3.2,7.47-2.13,13.68-4.62,18.67-7.47,2.13,2.13,4.08,4.8,5.87,8,1.77,3.2,2.67,6.93,2.67,11.2,0,7.83-4.62,14.22-13.87,19.2-9.25,4.98-22.05,7.47-38.4,7.47Z"/>
  <path class="cls-2" d="M1790.78,358.92c9.6,46.58,40.17,69.87,91.73,69.87,14.93,0,28.44-2.48,40.53-7.47,12.08-4.97,21.68-10.31,28.8-16,8.53,4.98,12.8,11.73,12.8,20.27,0,4.98-2.22,9.78-6.67,14.4-4.45,4.62-10.49,8.72-18.13,12.27-7.65,3.56-16.53,6.4-26.67,8.53-10.13,2.13-21.07,3.2-32.8,3.2-41.25,0-73.87-11.2-97.87-33.6s-36-55.11-36-98.13c0-20.27,2.93-38.31,8.8-54.13,5.87-15.82,14.04-29.24,24.53-40.27,10.48-11.02,23.02-19.47,37.6-25.33,14.58-5.87,30.4-8.8,47.47-8.8,16,0,30.75,2.67,44.27,8,13.51,5.33,25.15,12.89,34.93,22.67,9.78,9.78,17.42,21.33,22.93,34.67,5.51,13.33,8.27,28,8.27,44,0,7.83-1.78,13.42-5.33,16.8-3.56,3.38-8.53,5.43-14.93,6.13l-164.27,22.93Zm73.6-120.53c-21.69,0-39.65,7.56-53.87,22.67-14.23,15.12-21.69,36.72-22.4,64.8l146.67-20.27c-1.78-19.55-8.62-35.64-20.53-48.27-11.92-12.62-28.53-18.93-49.87-18.93Z"/>
  <path class="cls-2" d="M2079.84,455.99c-1.78,.72-4.45,1.51-8,2.4-3.56,.88-7.47,1.33-11.73,1.33-15.29,0-22.93-6.4-22.93-19.2v-180.8c0-8.17,1.51-14.67,4.53-19.47,3.02-4.8,8.08-9.51,15.2-14.13,9.24-6.04,21.78-11.28,37.6-15.73,15.82-4.44,33.68-6.67,53.6-6.67,28.44,0,42.67,7.12,42.67,21.33,0,3.56-.53,6.85-1.6,9.87-1.07,3.02-2.49,5.6-4.27,7.73-3.56-.71-8.18-1.42-13.87-2.13-5.69-.71-11.38-1.07-17.07-1.07-16.36,0-30.76,1.69-43.2,5.07-12.45,3.38-22.76,7.38-30.93,12v199.47Z"/>
  <g>
    <circle class="cls-3" cx="295.73" cy="295.73" r="295.73"/>
    <g class="cls-4">
      <path class="cls-5" d="M489.09,433.14c0,46.5-14.4,81.65-43.18,105.43-28.79,23.79-66.6,35.68-113.44,35.68H143.63V247.03c0-93.82,78.64-169.87,175.66-169.87h0c84.9,0,127.35,43.29,127.35,129.88,0,24.05-3.91,44.37-11.71,60.94-7.81,16.57-20.5,30.47-38.06,41.69,34.64,8.56,58.66,23.53,72.09,44.9,13.42,21.38,20.13,47.58,20.13,78.57Zm-151.5-209.26c0-32.07-18.06-48.11-54.16-48.11h-21.96v97.01h21.96c36.1,0,54.16-16.3,54.16-48.9Zm33.67,200.44c0-21.91-6.59-36.21-19.76-42.89-13.17-6.68-35.13-10.02-65.87-10.02h-24.15v104.23h26.35c32.2,0,54.16-4.27,65.87-12.83,11.71-8.54,17.57-21.37,17.57-38.48Z"/>
      <circle class="cls-1" cx="300.43" cy="288.26" r="279.84"/>
    </g>
  </g>
</svg>